# xmcd
#
# Track frame offsets:
#	150
#	18515
#	33029
#	50574
#	66422
#	80482
#	96250
#	114795
#	130232
#	143633
#	161998
#	176512
#	194057
#	209905
#	223965
#	239733
#	258278
#	273715
#
# Disc length: 3828
#
# Revision: 2
# Processed by: cddbd v1.5.2PL0 Copyright (c) Steve Scherf et al.
# Submitted via: kJams Pro (development) 1.0patch45.20
#
DISCID=1e0ef212
DTITLE=Various Artist - NSC 3042
DYEAR=2004
DGENRE=Country
TTITLE0=Martina McBride - This One's For The Girls
TTITLE1=Alan Jackson and Jimmy Buffet - It's Five O'clock Somewhere
TTITLE2=Keith Urban - Who Wouldn't Wanna Be Me
TTITLE3=Tim McGraw - Real Good Man
TTITLE4=Faith Hill - You're Still Here
TTITLE5=Deana Carter - I'm Just A Girl
TTITLE6=Pat Green - Wave On Wave
TTITLE7=Rushlow - I Can't Be Your Friend
TTITLE8=Rachel Proctor - Days Like This
TTITLE9=Martina McBride - Vocals - This One's For The Girls
TTITLE10=Alan Jackson and Jimmy Buffet - Vocals - It's Five O'clock Somewhere
TTITLE11=Keith Urban - Vocals - Who Wouldn't Wanna Be Me
TTITLE12=Tim McGraw - Vocals - Real Good Man
TTITLE13=Faith Hill - Vocals - You're Still Here
TTITLE14=Deana Carter - Vocals - I'm Just A Girl
TTITLE15=Pat Green - Vocals - Wave On Wave
TTITLE16=Rushlow - Vocals - I Can't Be Your Friend
TTITLE17=Rachel Proctor - Vocals - Days Like This
EXTD=
EXTT0=
EXTT1=
EXTT2=
EXTT3=
EXTT4=
EXTT5=
EXTT6=
EXTT7=
EXTT8=
EXTT9=
EXTT10=
EXTT11=
EXTT12=
EXTT13=
EXTT14=
EXTT15=
EXTT16=
EXTT17=
PLAYORDER=
